<?xml version="1.0" standalone="no"?>
<!DOCTYPE svg PUBLIC "-//W3C//DTD SVG 20010904//EN"
 "http://www.w3.org/TR/2001/REC-SVG-20010904/DTD/svg10.dtd">
<svg version="1.0" xmlns="http://www.w3.org/2000/svg"
 width="700.000000pt" height="700.000000pt" viewBox="0 0 700.000000 700.000000"
 preserveAspectRatio="xMidYMid meet">
<metadata>
Created by potrace 1.14, written by Peter Selinger 2001-2017
</metadata>
<g transform="translate(0.000000,700.000000) scale(0.100000,-0.100000)"
fill="#000000" stroke="none">
<path d="M2818 6785 c-2 -2 -30 -6 -63 -9 -194 -20 -391 -80 -603 -182 -325
-157 -580 -369 -738 -614 -27 -41 -49 -77 -50 -80 0 -3 -11 -27 -23 -55 -91
-202 -81 -414 27 -585 22 -36 372 -391 988 -1005 525 -522 1375 -1371 1890
-1885 925 -924 936 -935 930 -969 -18 -112 -215 -314 -433 -445 -125 -74 -323
-153 -448 -177 -387 -75 -658 39 -819 344 -53 100 -111 277 -131 397 -5 34
-15 88 -21 123 -17 95 -23 468 -11 642 4 55 10 136 12 180 3 44 8 101 10 126
2 26 7 104 11 174 5 109 4 126 -8 119 -8 -5 -102 -69 -209 -143 -106 -74 -221
-153 -253 -175 -48 -34 -63 -51 -82 -96 -197 -472 -226 -536 -330 -745 -62
-123 -182 -316 -205 -331 -23 -14 -118 117 -266 366 -44 74 -122 206 -174 293
-52 87 -99 166 -104 176 -9 16 -92 150 -180 289 -42 66 -223 330 -252 367 -13
17 -27 35 -31 40 -127 170 -303 386 -335 413 -12 10 -20 7 -44 -15 -17 -16
-46 -41 -64 -57 -39 -34 -177 -156 -229 -203 -19 -17 -46 -40 -59 -50 l-24
-20 88 -104 c123 -146 324 -416 444 -598 55 -84 101 -155 101 -156 0 -2 17
-30 39 -62 21 -32 119 -195 218 -363 262 -444 296 -498 394 -618 66 -81 108
-124 154 -157 22 -17 42 -33 45 -36 15 -18 143 -69 190 -76 240 -34 439 88
629 385 19 29 37 50 41 45 4 -4 12 -28 19 -53 66 -239 200 -482 353 -638 161
-165 402 -295 608 -328 19 -3 53 -9 75 -13 108 -20 361 -8 512 23 521 109
1044 472 1240 861 80 157 101 330 60 473 -13 44 -39 107 -58 139 -26 44 -297
320 -1126 1148 -2100 2095 -2675 2670 -2688 2689 -41 57 127 273 315 407 181
129 411 230 605 265 54 10 281 11 330 1 208 -40 357 -168 466 -401 33 -71 79
-214 93 -286 3 -14 9 -50 15 -80 33 -175 45 -515 27 -760 -3 -52 -9 -126 -11
-165 -3 -38 -7 -97 -10 -130 -2 -33 -7 -107 -11 -165 -3 -58 -7 -107 -8 -110
-8 -28 57 12 422 267 l118 82 69 168 c160 393 304 692 410 853 36 54 70 102
76 105 6 4 19 -1 31 -12 19 -17 198 -278 198 -288 0 -3 19 -35 42 -72 22 -38
49 -81 58 -98 127 -222 348 -585 429 -704 9 -13 21 -31 26 -39 68 -105 309
-438 366 -506 5 -6 19 -22 30 -36 12 -14 38 -45 58 -70 20 -25 54 -65 77 -89
34 -37 43 -41 55 -29 8 7 93 83 189 167 96 85 181 160 189 167 12 11 0 29 -70
111 -244 285 -583 786 -841 1243 -14 25 -54 92 -88 150 -246 413 -376 564
-549 642 -57 25 -84 32 -178 42 -76 9 -203 -31 -286 -87 -88 -60 -195 -177
-268 -292 -23 -37 -45 -63 -49 -58 -4 4 -17 44 -29 88 -87 310 -281 591 -518
752 -86 58 -109 70 -206 112 -54 23 -210 66 -277 76 -47 7 -306 15 -312 10z"/>
</g>
</svg>
